<svg width="16" height="17" viewBox="0 0 16 17" fill="none" xmlns="http://www.w3.org/2000/svg">
<rect width="16" height="17" fill="#D73240"/>
<path d="M13.0965 3.22414L8.1026 3.2659C5.18202 3.29054 2.83389 5.72842 2.85735 8.71193C2.88148 11.6797 5.24503 14.069 8.14483 14.069H8.18907C10.9474 14.0457 13.1648 11.7434 13.1427 8.9269L13.0965 3.22414ZM11.8349 8.87623C11.843 9.88808 11.4636 10.8431 10.7671 11.5667C10.0707 12.2897 9.14159 12.6929 8.15086 12.7011H8.11735C7.0683 12.7011 6.08025 12.2856 5.33552 11.5311C4.58946 10.7753 4.17386 9.76896 4.16581 8.69687C4.15643 7.61862 4.55996 6.60129 5.29999 5.8318C6.0407 5.06299 7.03009 4.63511 8.08651 4.62552L11.8007 4.5954L11.8349 8.87623Z" fill="white"/>
</svg>
