<svg width="245" height="58" viewBox="0 0 245 58" fill="none" xmlns="http://www.w3.org/2000/svg">
<g clip-path="url(#clip0_26_3)">
<path d="M178.873 14.3374C182.582 14.3374 185.589 11.3298 185.589 7.61977C185.589 3.90975 182.582 0.902161 178.873 0.902161C175.164 0.902161 172.158 3.90975 172.158 7.61977C172.158 11.3298 175.164 14.3374 178.873 14.3374Z" fill="white"/>
<path d="M135.208 33.6189L125.26 57.8389H114.734C113.281 57.8389 112.066 56.726 111.942 55.28L108.754 17.2441H116.37C118.775 17.2441 120.736 19.1733 120.777 21.5785L122.83 44.7222L134.066 17.2441H139.116C141.488 17.2441 143.431 19.1184 143.519 21.4906L144.372 44.5684L155.622 17.2441H160.581C163.824 17.2441 165.954 20.6267 164.556 23.5517L150.462 57.8389H138.849C137.341 57.8389 136.101 56.6455 136.046 55.1372L135.204 33.6189H135.208Z" fill="white"/>
<path d="M171.268 17.2441H178.259C181.029 17.2441 183.115 19.7737 182.585 22.4974L175.693 57.8426H166.759C164.995 57.8426 163.667 56.2318 164.007 54.5003L171.272 17.2477L171.268 17.2441Z" fill="white"/>
<path d="M215.157 17.2441L213.474 21.6297C212.244 24.833 209.17 26.9452 205.741 26.9452H200.957L194.98 57.8389H186.618C184.557 57.8389 183.013 55.9609 183.404 53.9365L190.556 17.321C191.178 14.0628 192.056 11.3318 193.195 9.13166C194.333 6.9315 195.767 5.15967 197.502 3.81248C199.233 2.4653 201.305 1.49884 203.709 0.90213C206.114 0.309077 208.921 0.0564806 212.127 0.00888992C213.898 -0.0203966 215.75 0.0271951 217.251 0.0857682C218.795 0.144341 219.827 1.69287 219.3 3.14621L216.863 9.86748C215.985 9.81623 215.128 9.77596 214.301 9.75034C213.474 9.72471 212.724 9.71373 212.05 9.71373C210.498 9.71373 209.192 9.81989 208.13 10.0249C207.069 10.2336 206.202 10.618 205.532 11.189C204.858 11.7602 204.317 12.5362 203.903 13.5173C203.49 14.5021 203.153 15.7431 202.893 17.2441H215.154H215.157Z" fill="white"/>
<path d="M232.695 17.2441L234.61 7.85403C235.254 4.16026 232.406 0.781326 228.659 0.792309L223.667 0.810611L215.509 41.5409C215.355 42.4232 215.223 43.2762 215.121 44.0999C215.015 44.9272 214.967 45.707 214.967 46.4281C214.967 50.0487 216.014 52.8712 218.111 54.8883C220.204 56.9054 223.557 57.9158 228.161 57.9158C228.677 57.9158 234.547 57.9048 234.547 57.9048C236.074 57.9121 237.322 56.8871 237.709 55.5326H237.706L240.268 48.1341C240.008 48.1341 239.532 48.1487 238.833 48.1743C238.134 48.2 237.358 48.2146 236.505 48.2146H232.275C230.514 48.2146 229.288 47.9035 228.589 47.2848C227.89 46.6624 227.542 45.7326 227.542 44.4916C227.542 43.613 227.645 42.7344 227.853 41.8521L230.723 26.9489H235.583C239.012 26.9489 242.087 24.8366 243.316 21.6334L245 17.2441H232.699H232.695Z" fill="white"/>
<path d="M106.964 11.5735C105.101 11.5735 99.1139 11.4929 97.8476 11.4929H90.4363C87.955 11.4929 86.0372 11.8517 84.694 12.5692C83.3472 13.2904 82.52 14.4472 82.2126 16.047C82.0589 16.6876 81.9784 17.299 81.9784 17.8847C81.9784 19.1111 82.3407 20.0409 83.0654 20.6816C83.79 21.3186 84.9539 21.8787 86.5569 22.3582L93.6973 24.6755C98.0928 26.1142 101.16 27.9776 102.895 30.2693C104.626 32.5609 105.493 35.2224 105.493 38.2572C105.493 39.641 105.339 41.1346 105.028 42.7344C104.457 45.7179 103.564 48.1817 102.353 50.1219C101.138 52.0695 99.5311 53.6253 97.5401 54.7968C95.5492 55.9682 93.1666 56.7956 90.3997 57.2715C87.6329 57.7511 84.4122 57.9927 80.7377 57.9927C78.3588 57.9927 75.526 57.9634 72.2395 57.9121C70.4278 57.8828 68.565 57.8609 66.6508 57.8499C64.3488 57.8353 62.7604 55.4594 63.5766 53.2446L65.8384 47.1273C67.3389 47.1823 68.9163 47.2189 70.5706 47.2445C72.2248 47.2738 73.8315 47.2848 75.3833 47.2848H82.5237C85.6273 47.2848 87.9696 46.9516 89.547 46.2854C91.1244 45.6228 92.1199 44.2499 92.5334 42.1706C92.5847 41.907 92.6249 41.6398 92.6506 41.3725C92.6762 41.109 92.6908 40.8417 92.6908 40.5745C92.6908 39.2932 92.2882 38.2974 91.4867 37.5763C90.6852 36.8551 89.4811 36.2327 87.8781 35.6983L81.283 33.6226C79.0066 32.8758 77.0925 32.0521 75.5407 31.1479C73.9889 30.2436 72.7482 29.2442 71.8149 28.1497C70.8853 27.0587 70.2119 25.8616 69.7983 24.5547C69.3848 23.2478 69.1762 21.8238 69.1762 20.2789C69.1762 18.8402 69.3299 17.2697 69.641 15.5674C70.157 12.69 71.0903 10.3068 72.4334 8.41417C73.7766 6.52519 75.4711 5.00595 77.517 3.86011C79.5592 2.71427 81.9125 1.91621 84.5769 1.46227C87.2413 1.00833 90.1509 0.785019 93.3057 0.785019C94.6488 0.785019 103.045 0.799662 104.673 0.825288C105.431 0.839931 106.295 0.854577 107.261 0.872881C109.065 0.905828 110.298 2.78383 109.643 4.5154L106.964 11.5735Z" fill="white"/>
<path d="M55.9055 0.0090332L28.6394 0.232342C12.6934 0.364132 -0.127144 13.4003 0.000951589 29.3542C0.132707 45.2238 13.0374 58.0001 28.87 58.0001H29.1116C44.1719 57.8756 56.2788 45.5643 56.158 30.5037L55.9055 0.0090332ZM49.0176 30.2328C49.0615 35.6435 46.99 40.7503 43.1874 44.6198C39.3848 48.4856 34.3122 50.6418 28.9029 50.6858H28.7199C22.9923 50.6858 17.5976 48.4637 13.5315 44.4294C9.45806 40.3879 7.18893 35.0065 7.14502 29.2736C7.09378 23.5078 9.29702 18.0679 13.3375 13.9531C17.3817 9.842 22.7836 7.55399 28.5516 7.50273L48.8309 7.34166L49.0176 30.2328Z" fill="white"/>
</g>
<defs>
<clipPath id="clip0_26_3">
<rect width="245" height="58" fill="white"/>
</clipPath>
</defs>
</svg>
